<?xml version="1.0" encoding="utf-8"?>
<!-- Generator: Adobe Illustrator 23.0.3, SVG Export Plug-In . SVG Version: 6.00 Build 0)  -->
<svg version="1.1" id="Layer_1" xmlns="http://www.w3.org/2000/svg" xmlns:xlink="http://www.w3.org/1999/xlink" x="0px" y="0px"
	 viewBox="0 0 1440 1440" style="enable-background:new 0 0 1440 1440;" xml:space="preserve">
<style type="text/css">
	.st0{fill:#36495E;}
	.st1{fill:#FFFFFF;}
	.st2{fill:#40B782;}
</style>
<rect class="st0" width="1440" height="1440"/>
<g>
	<path class="st1" d="M128.65,297.38v-19.8c36-7.8,75-43.2,78.6-82.2h20.4v75.6h52.2v26.4h-52.2v104.4c0,28.2,8.4,43.2,27,43.2
		c11.4,0,24-5.4,40.8-17.4l8.4,17.4c-19.2,18-53.4,34.2-73.8,34.2c-43.8,0-70.2-27-70.2-73.2v-108.6H128.65z"/>
	<path class="st1" d="M320.65,132.98v-17.4l115.8-15v192.6c16.2-19.2,37.8-32.4,70.2-32.4c54,0,87,38.4,87,89.4v33
		c0,60,7.2,70.2,47.4,70.2v17.4h-138.6v-17.4c15,0,23.4-10.2,23.4-70.2v-25.2c0-39-7.2-63.6-37.2-63.6c-24,0-52.2,19.2-52.2,59.4
		v29.4c0,60,7.2,70.2,40.8,70.2v17.4h-156.6v-17.4c40.2,0,48-10.2,48-70.2v-180C368.65,143.18,360.85,132.98,320.65,132.98z"/>
	<path class="st1" d="M799.45,448.59c27,1.8,52.8-8.4,71.4-24.6l10.2,17.4c-21,22.2-57.6,39.6-91.2,39.6
		c-78,0-121.2-49.8-121.2-110.4c0-63.6,52.8-109.8,115.8-109.8c65.4,0,99.6,57.6,86.4,99h-130.2
		C735.85,420.99,764.05,446.19,799.45,448.59z M824.65,333.38c1.8-24.6-10.8-43.8-37.2-43.8c-21.6,0-36.6,15-42.6,43.8H824.65z"/>
</g>
<g>
	<path class="st2" d="M317.36,728.88c10.2-21,4.8-30-17.4-30v-17.4h90v17.4c-21,0-31.8,7.8-42.6,30l-80.4,163.2h-16.8l-80.4-163.2
		c-10.8-22.8-21-30-40.2-30v-17.4h131.4v17.4c-25.2,0-29.4,9.6-19.8,30l37.2,79.2L317.36,728.88z"/>
	<path class="st2" d="M602.36,890.29c-3-6-7.8-20.4-9.6-33.6c-15.6,19.8-41.4,34.8-75,34.8c-54,0-93-39-93-90v-33
		c0-60-7.2-69.6-47.4-69.6v-17.4h115.2v112.2c0,39,9.6,64.2,43.2,64.2c24,0,55.2-19.8,55.2-59.4v-30c0-60-7.8-69.6-47.4-69.6v-17.4
		h115.2v110.4c0,60,5.4,69.6,41.4,69.6v15L602.36,890.29z"/>
	<path class="st2" d="M864.55,859.09c27,1.8,52.8-8.4,71.4-24.6l10.2,17.4c-21,22.2-57.6,39.6-91.2,39.6
		c-78,0-121.2-49.8-121.2-110.4c0-63.6,52.8-109.8,115.8-109.8c65.4,0,99.6,57.6,86.4,99h-130.2
		C800.95,831.49,829.15,856.69,864.55,859.09z M889.75,743.88c1.8-24.6-10.8-43.8-37.2-43.8c-21.6,0-36.6,15-42.6,43.8H889.75z"/>
</g>
<g>
	<path class="st1" d="M317.05,1082.38c54,0,93,38.4,93,89.4v33c0,60,7.8,70.2,47.4,70.2v17.4h-138.6v-17.4c15,0,23.4-10.2,23.4-70.2
		v-25.2c0-39-9.6-63.6-43.2-63.6c-24,0-55.2,19.2-55.2,59.4v29.4c0,60,6.6,70.2,46.8,70.2v17.4h-162v-17.4
		c40.2,0,47.4-10.2,47.4-70.2v-19.8c0-60-7.2-70.2-47.4-70.2v-17.4l105-15c3,6,7.2,21.6,8.4,34.2
		C258.25,1096.78,283.45,1082.38,317.05,1082.38z"/>
	<path class="st1" d="M615.85,1270.19c27,1.8,52.8-8.4,71.4-24.6l10.2,17.4c-21,22.2-57.6,39.6-91.2,39.6
		c-78,0-121.2-49.8-121.2-110.4c0-63.6,52.8-109.8,115.8-109.8c65.4,0,99.6,57.6,86.4,99h-130.2
		C552.25,1242.58,580.45,1267.79,615.85,1270.19z M641.05,1154.98c1.8-24.6-10.8-43.8-37.2-43.8c-21.6,0-36.6,15-42.6,43.8H641.05z"
		/>
	<path class="st1" d="M837.25,1303.19h-13.2l-70.8-163.2c-10.2-24.6-19.8-30-40.8-30v-17.4h129v17.4c-25.8,0-29.4,7.2-19.2,30
		l27.6,64.8l48.6-112.2h14.4l51,118.2l30.6-70.8c9.6-22.2,6-30-16.2-30v-17.4h88.8v17.4c-21,0-33.6,5.4-43.2,30l-70.8,163.2h-13.2
		l-51-118.8L837.25,1303.19z"/>
	<path class="st1" d="M1175.64,1302.59c-32.4,0-56.4-18.6-64.8-18.6c-6.6,0-9,3.6-9,18.6h-17.4v-87.6h17.4c0,27,33.6,62.4,72.6,62.4
		c19.8,0,31.8-9.6,31.8-23.4c0-14.4-13.8-23.4-38.4-35.4l-33.6-15c-31.2-14.4-45-39-45-61.2c0-45,40.2-60,70.8-60
		c31.2,0,46.2,10.8,58.8,10.8c4.2,0,6-3,6-10.8h17.4v69.6h-17.4c0-25.2-30-45.6-55.2-45.6c-16.2,0-29.4,7.8-29.4,20.4
		c0,13.8,12,19.8,41.4,33l28.8,13.8c30.6,13.8,46.8,37.8,46.8,61.2C1257.24,1282.79,1214.64,1302.59,1175.64,1302.59z"/>
</g>
</svg>
